# xmcd
#
# Track frame offsets:
# 150
# 19911
# 57486
# 77287
# 97251
# 115193
# 125063
# 144494
# 160383
# 181182
# 196356
#
# Disc length: 3524 seconds
#
#
# Revision: 0
# Processed by: cddbd v1.5.2PL0 Copyright (c) Steve Scherf et al.
# Submitted via: Nero 7, 11, 10, 0 
#
DISCID=970dc20b
DTITLE=Dave Herrero - Hard Life Blues
DYEAR=2001
DGENRE=Blues
TTITLE0=Bark!!!
TTITLE1=Trouble, Trouble, Trouble
TTITLE2=Orange Peel
TTITLE3=Dirty Mistreater
TTITLE4=The Way You Do
TTITLE5=I Wanna Boogie
TTITLE6=You're My Everything
TTITLE7=Cindy
TTITLE8=Cool Breeze
TTITLE9=Creepin'
TTITLE10=Hard Life Blues
EXTD=
EXTT0=Bark!!!
EXTT1=Trouble, Trouble, Trouble
EXTT2=Orange Peel
EXTT3=Dirty Mistreater
EXTT4=The Way You Do
EXTT5=I Wanna Boogie
EXTT6=You're My Everything
EXTT7=Cindy
EXTT8=Cool Breeze
EXTT9=Creepin'
EXTT10=Hard Life Blues
PLAYORDER=
